<svg width="200" height="200" xmlns="http://www.w3.org/2000/svg">

 <g>
  <title>background</title>
  <rect fill="none" id="canvas_background" height="402" width="582" y="-1" x="-1"/>
 </g>
 <g>
  <title>Layer 1</title>
  <path id="svg_2" fill="#5f9a9c" d="m97.725998,67.353981c-1.472,0.807999 -2.474998,2.375 -2.474998,4.167l0,13.800003c0,1.791 1.002998,3.358002 2.474998,4.166c0.066002,0.031998 0.133003,0.058998 0.195,0.090996l0,-0.090996c0.620003,0.366997 1.333,0.580002 2.079002,0.580002c0.749001,0 1.459,-0.213005 2.077003,-0.580002l0,0.090996c0.063995,-0.031998 0.132996,-0.058998 0.195,-0.090996c1.472,-0.807999 2.474998,-2.375 2.474998,-4.166l0,-13.799004c0,-1.792999 -1.002998,-3.360001 -2.474998,-4.167c-0.063004,-0.031998 -0.131004,-0.058998 -0.195,-0.090996l0,0.090996c-0.618004,-0.364998 -1.329002,-0.582001 -2.077003,-0.582001c-0.747002,0 -1.459,0.217003 -2.079002,0.582001l0,-0.090996c-0.062996,0.030998 -0.128998,0.057999 -0.195,0.089996z"/>
  <path id="svg_3" fill="#5f9a9c" d="m49.554001,93.174004l0,9.328995c14.351997,8.098999 30.833,12.840004 48.366997,13.188004l0,-11.488998c-0.062996,-0.019005 -0.128998,-0.029007 -0.195,-0.047005c-3.804001,-1.010002 -6.626999,-4.493996 -6.626999,-8.604996l0,-23.739006c0,-4.113998 2.823997,-7.597 6.626999,-8.604996c0.066002,-0.018002 0.133003,-0.030003 0.195,-0.046001l0,-11.528l-6.822998,0c-22.847,0 -41.543999,18.696003 -41.543999,41.542004z"/>
  <path id="svg_4" fill="#5f9a9c" d="m108.904999,51.342987l-6.827995,0l0,11.527c0.063995,0.015999 0.132996,0.028 0.195,0.046001c3.807999,1.007996 6.632996,4.490993 6.632996,8.604992l0,23.737999c0,4.112007 -2.824997,7.596001 -6.632996,8.605003c-0.063004,0.017998 -0.131004,0.028 -0.195,0.046997l0,11.489006c17.536995,-0.348 34.019997,-5.089005 48.368996,-13.188004l0,-9.329002c0,-22.843994 -18.695999,-41.539993 -41.541,-41.539993z"/>
  <path id="svg_5" fill="#5f9a9c" d="m49.554001,107.237999l0,51.215996c0,22.850998 18.697998,41.546005 41.543999,41.546005l17.806999,0c22.845001,0 41.541,-18.695007 41.541,-41.546005l0,-51.215996c-15.039001,8.065002 -32.222,12.642998 -50.445999,12.642998s-35.406998,-4.576996 -50.445999,-12.642998z"/>
  <path id="svg_6" fill="#5f9a9c" d="m103.499001,33.339001c0.945,-2.226 2.305,-4.205 4.038002,-5.882l0.305,-0.292c2.139999,-2.070002 3.812996,-4.507 4.976997,-7.247002c1.162003,-2.74 1.748001,-5.640999 1.748001,-8.615999l0,-11.302l-4.151001,0l0,11.302c0,2.414 -0.479004,4.767 -1.421997,6.993c-0.943001,2.223999 -2.303001,4.202999 -4.036003,5.882999l-0.305,0.292c-2.141998,2.068001 -3.816002,4.507 -4.976997,7.249001c-1.162003,2.74 -1.755005,5.637999 -1.755005,8.614l0,11.299999l4.156006,0l0,-11.299999c0,-2.416 0.480995,-4.77 1.421997,-6.993999z"/>
 </g>
</svg>