<svg width="200" height="200" xmlns="http://www.w3.org/2000/svg">

 <g>
  <title>background</title>
  <rect fill="none" id="canvas_background" height="402" width="582" y="-1" x="-1"/>
 </g>
 <g>
  <title>Layer 1</title>
  <path id="svg_3" fill="#5f9a9c" d="m196.789001,36.247002l-27.345001,27.344997c-2.529007,2.532001 -6.022003,4.094997 -9.878998,4.094997c-3.861008,0 -7.362,-1.562996 -9.891998,-4.094997l-6.591003,-6.587997c-2.529999,-2.532001 -4.089005,-6.027 -4.089005,-9.888s1.559006,-7.354 4.089005,-9.884003l27.345001,-27.344998c-16.718002,-6.55 -36.460999,-3.079 -49.970001,10.431001c-18.199997,18.196999 -18.199997,47.704002 0,65.900002c18.201004,18.200996 47.703995,18.200996 65.899994,0c13.514008,-13.508003 16.983002,-33.249001 10.432007,-49.971001z"/>
  <path id="svg_4" fill="#5f9a9c" d="m50.082001,120.276993l-28.376001,26.309998c-5.015999,4.653992 -8.204999,11.263 -8.344999,18.644989c-0.14,7.382004 2.797001,14.104004 7.636999,18.943008l1.219,1.218002c4.836,4.837997 11.558002,7.776993 18.940002,7.636993c7.385998,-0.138 13.987999,-3.326996 18.643997,-8.347l26.310001,-28.376007l-36.028999,-36.029984zm-1.239002,53.742996c-4.543999,4.553009 -11.921997,4.553009 -16.473999,0c-4.548,-4.547989 -4.548,-11.925995 0,-16.473999c4.552002,-4.553009 11.93,-4.553009 16.473999,0c4.548,4.547989 4.548,11.925995 0,16.473999z"/>
  <path id="svg_6" fill="#5f9a9c" d="m94.456001,75.744003c-1.802002,0 -3.432999,0.726997 -4.612,1.907997l-30.314003,30.317001c-1.182999,1.18 -1.91,2.811996 -1.91,4.612c0,1.803001 0.727001,3.433998 1.91,4.612l67.875,67.879997c10.927002,10.921005 28.624008,10.917007 39.542007,0c10.922989,-10.919998 10.922989,-28.621002 0,-39.541992l-67.879005,-67.879005c-1.179001,-1.181 -2.808998,-1.907997 -4.612,-1.907997zm46.461006,91.863998c1.811005,1.813004 1.811005,4.778 0,6.589005c-1.811005,1.813995 -4.779999,1.813995 -6.591003,0l-59.309998,-59.310005c-1.813995,-1.811005 -1.813995,-4.776001 0,-6.591003c1.811005,-1.810997 4.776001,-1.810997 6.590004,0l59.310997,59.312004zm15.158997,-15.156998c1.810989,1.813004 1.810989,4.778 0,6.591003s-4.779999,1.812988 -6.591003,0l-59.309998,-59.313011c-1.818001,-1.812996 -1.818001,-4.778 0,-6.589996c1.806999,-1.813004 4.775993,-1.813004 6.585999,0.001999l59.315002,59.310005z"/>
  <path id="svg_7" fill="#5f9a9c" d="m18.948,54.626999l7.414,-0.257999l38.771004,38.769001l9.882996,-9.886002l-38.765999,-38.765999l0.256001,-7.416c0.02,-0.628998 -0.116001,-1.275002 -0.431999,-1.873001c-0.315002,-0.598999 -0.779003,-1.072998 -1.315002,-1.410999l-24.870999,-15.657999l-9.888,9.882l15.667,24.877001c0.332,0.535999 0.812,0.990997 1.407,1.308998c0.599001,0.316002 1.243,0.452999 1.874001,0.431z"/>
 </g>
</svg>