{
    "asset" : {
        "generator" : "Khronos glTF Blender I/O v1.3.48",
        "version" : "2.0"
    },
    "scene" : 0,
    "scenes" : [
        {
            "name" : "Scene",
            "nodes" : [
                0,
                1,
                2,
                3,
                4,
                5,
                6
            ]
        }
    ],
    "nodes" : [
        {
            "mesh" : 0,
            "name" : "Cube",
            "rotation" : [
                0,
                0.2588190734386444,
                0,
                0.965925931930542
            ],
            "scale" : [
                4,
                0.10000000149011612,
                4
            ],
            "translation" : [
                0.026796407997608185,
                0,
                0.29583263397216797
            ]
        },
        {
            "mesh" : 1,
            "name" : "Portfolio",
            "rotation" : [
                0,
                0.09604325145483017,
                0,
                0.9953771829605103
            ],
            "translation" : [
                -2.0181775093078613,
                0.20000000298023224,
                1.8323824405670166
            ]
        },
        {
            "mesh" : 2,
            "name" : "Wellcome",
            "rotation" : [
                0.7038379907608032,
                0.06791283935308456,
                -0.06791284680366516,
                0.7038379907608032
            ],
            "translation" : [
                -3.571225166320801,
                0.09999999403953552,
                0.27202919125556946
            ]
        },
        {
            "mesh" : 3,
            "name" : "reactLine1",
            "rotation" : [
                0.007665644399821758,
                -0.4779127240180969,
                -0.6156182289123535,
                0.6265419721603394
            ],
            "scale" : [
                0.5,
                0.35000061988830566,
                0.20000000298023224
            ],
            "translation" : [
                1.5275152921676636,
                0.5493523478507996,
                -0.5278979539871216
            ]
        },
        {
            "mesh" : 4,
            "name" : "reactLine2",
            "rotation" : [
                0.3052908480167389,
                -0.027860602363944054,
                -0.5430080890655518,
                0.7817696332931519
            ],
            "scale" : [
                0.5,
                0.35000061988830566,
                0.20000000298023224
            ],
            "translation" : [
                1.5275152921676636,
                0.5893523097038269,
                -0.5278979539871216
            ]
        },
        {
            "mesh" : 5,
            "name" : "reactLine3",
            "rotation" : [
                -0.36973807215690613,
                -0.738096296787262,
                -0.4835973083972931,
                0.29093167185783386
            ],
            "scale" : [
                0.5,
                0.35000061988830566,
                0.20000000298023224
            ],
            "translation" : [
                1.5275152921676636,
                0.5493523478507996,
                -0.5278979539871216
            ]
        },
        {
            "mesh" : 6,
            "name" : "reactBall",
            "rotation" : [
                0,
                -0.4145126938819885,
                0,
                0.9100435376167297
            ],
            "scale" : [
                0.10000000149011612,
                0.10000000149011612,
                0.10000000149011612
            ],
            "translation" : [
                1.5439077615737915,
                0.5552921891212463,
                -0.5392501354217529
            ]
        }
    ],
    "materials" : [
        {
            "doubleSided" : true,
            "emissiveFactor" : [
                0,
                0,
                0
            ],
            "name" : "Material",
            "pbrMetallicRoughness" : {
                "baseColorFactor" : [
                    0.6038273572921753,
                    0.6038273572921753,
                    0.6038273572921753,
                    1
                ],
                "metallicFactor" : 0,
                "roughnessFactor" : 0.4000000059604645
            }
        },
        {
            "doubleSided" : true,
            "emissiveFactor" : [
                0,
                0,
                0
            ],
            "name" : "\u6750\u8cea",
            "pbrMetallicRoughness" : {
                "baseColorFactor" : [
                    0.009134054183959961,
                    0.18447500467300415,
                    0.8879231214523315,
                    1
                ],
                "metallicFactor" : 0,
                "roughnessFactor" : 0.5
            }
        },
        {
            "doubleSided" : true,
            "emissiveFactor" : [
                0,
                0,
                0
            ],
            "name" : "\u6750\u8cea.001",
            "pbrMetallicRoughness" : {
                "baseColorFactor" : [
                    0.8000000715255737,
                    0.2845599949359894,
                    0.03150009363889694,
                    1
                ],
                "metallicFactor" : 0,
                "roughnessFactor" : 0.5
            }
        },
        {
            "doubleSided" : true,
            "emissiveFactor" : [
                0,
                0,
                0
            ],
            "name" : "\u6750\u8cea.002",
            "pbrMetallicRoughness" : {
                "baseColorFactor" : [
                    0.11953839659690857,
                    0.7011020183563232,
                    0.964686393737793,
                    1
                ],
                "metallicFactor" : 0,
                "roughnessFactor" : 0.5
            }
        },
        {
            "doubleSided" : true,
            "emissiveFactor" : [
                0,
                0,
                0
            ],
            "name" : "\u6750\u8cea.007",
            "pbrMetallicRoughness" : {
                "baseColorFactor" : [
                    0.11953839659690857,
                    0.7011020183563232,
                    0.964686393737793,
                    1
                ],
                "metallicFactor" : 0,
                "roughnessFactor" : 0.5
            }
        },
        {
            "doubleSided" : true,
            "emissiveFactor" : [
                0,
                0,
                0
            ],
            "name" : "\u6750\u8cea.009",
            "pbrMetallicRoughness" : {
                "baseColorFactor" : [
                    0.11953839659690857,
                    0.7011020183563232,
                    0.964686393737793,
                    1
                ],
                "metallicFactor" : 0,
                "roughnessFactor" : 0.5
            }
        },
        {
            "doubleSided" : true,
            "emissiveFactor" : [
                0,
                0,
                0
            ],
            "name" : "\u6750\u8cea.010",
            "pbrMetallicRoughness" : {
                "baseColorFactor" : [
                    0.16513220965862274,
                    0.48514997959136963,
                    0.5332764983177185,
                    1
                ],
                "metallicFactor" : 0,
                "roughnessFactor" : 0.5
            }
        }
    ],
    "meshes" : [
        {
            "name" : "Cube",
            "primitives" : [
                {
                    "attributes" : {
                        "POSITION" : 0,
                        "NORMAL" : 1,
                        "TEXCOORD_0" : 2
                    },
                    "indices" : 3,
                    "material" : 0
                }
            ]
        },
        {
            "name" : "\u6587\u5b57",
            "primitives" : [
                {
                    "attributes" : {
                        "POSITION" : 4,
                        "NORMAL" : 5,
                        "TEXCOORD_0" : 6
                    },
                    "indices" : 7,
                    "material" : 1
                }
            ]
        },
        {
            "name" : "\u6587\u5b57.001",
            "primitives" : [
                {
                    "attributes" : {
                        "POSITION" : 8,
                        "NORMAL" : 9,
                        "TEXCOORD_0" : 10
                    },
                    "indices" : 11,
                    "material" : 2
                }
            ]
        },
        {
            "name" : "Nurbs\u5713",
            "primitives" : [
                {
                    "attributes" : {
                        "POSITION" : 12,
                        "NORMAL" : 13,
                        "TEXCOORD_0" : 14
                    },
                    "indices" : 15,
                    "material" : 3
                }
            ]
        },
        {
            "name" : "Nurbs\u5713.005",
            "primitives" : [
                {
                    "attributes" : {
                        "POSITION" : 16,
                        "NORMAL" : 17,
                        "TEXCOORD_0" : 18
                    },
                    "indices" : 15,
                    "material" : 4
                }
            ]
        },
        {
            "name" : "Nurbs\u5713.007",
            "primitives" : [
                {
                    "attributes" : {
                        "POSITION" : 19,
                        "NORMAL" : 20,
                        "TEXCOORD_0" : 21
                    },
                    "indices" : 15,
                    "material" : 5
                }
            ]
        },
        {
            "name" : "\u7403\u9ad4",
            "primitives" : [
                {
                    "attributes" : {
                        "POSITION" : 22,
                        "NORMAL" : 23,
                        "TEXCOORD_0" : 24
                    },
                    "indices" : 25,
                    "material" : 6
                }
            ]
        }
    ],
    "accessors" : [
        {
            "bufferView" : 0,
            "componentType" : 5126,
            "count" : 24,
            "max" : [
                1,
                1,
                1
            ],
            "min" : [
                -1,
                -1,
                -1
            ],
            "type" : "VEC3"
        },
        {
            "bufferView" : 1,
            "componentType" : 5126,
            "count" : 24,
            "type" : "VEC3"
        },
        {
            "bufferView" : 2,
            "componentType" : 5126,
            "count" : 24,
            "type" : "VEC2"
        },
        {
            "bufferView" : 3,
            "componentType" : 5123,
            "count" : 36,
            "type" : "SCALAR"
        },
        {
            "bufferView" : 4,
            "componentType" : 5126,
            "count" : 4036,
            "max" : [
                5.548421382904053,
                0.12999998033046722,
                0.017192983999848366
            ],
            "min" : [
                0.10561403632164001,
                -0.12999998033046722,
                -1.0205262899398804
            ],
            "type" : "VEC3"
        },
        {
            "bufferView" : 5,
            "componentType" : 5126,
            "count" : 4036,
            "type" : "VEC3"
        },
        {
            "bufferView" : 6,
            "componentType" : 5126,
            "count" : 4036,
            "type" : "VEC2"
        },
        {
            "bufferView" : 7,
            "componentType" : 5123,
            "count" : 7404,
            "type" : "SCALAR"
        },
        {
            "bufferView" : 8,
            "componentType" : 5126,
            "count" : 4568,
            "max" : [
                5.166316032409668,
                0.15000000596046448,
                0.0147368423640728
            ],
            "min" : [
                0.0147368423640728,
                -0.15000000596046448,
                -0.8410526514053345
            ],
            "type" : "VEC3"
        },
        {
            "bufferView" : 9,
            "componentType" : 5126,
            "count" : 4568,
            "type" : "VEC3"
        },
        {
            "bufferView" : 10,
            "componentType" : 5126,
            "count" : 4568,
            "type" : "VEC2"
        },
        {
            "bufferView" : 11,
            "componentType" : 5123,
            "count" : 8400,
            "type" : "SCALAR"
        },
        {
            "bufferView" : 12,
            "componentType" : 5126,
            "count" : 1261,
            "max" : [
                1.149999976158142,
                0.15000003576278687,
                1.149999976158142
            ],
            "min" : [
                -1.149999976158142,
                -0.15000005066394806,
                -1.149999976158142
            ],
            "type" : "VEC3"
        },
        {
            "bufferView" : 13,
            "componentType" : 5126,
            "count" : 1261,
            "type" : "VEC3"
        },
        {
            "bufferView" : 14,
            "componentType" : 5126,
            "count" : 1261,
            "type" : "VEC2"
        },
        {
            "bufferView" : 15,
            "componentType" : 5123,
            "count" : 6912,
            "type" : "SCALAR"
        },
        {
            "bufferView" : 16,
            "componentType" : 5126,
            "count" : 1261,
            "max" : [
                1.149999976158142,
                0.15000003576278687,
                1.149999976158142
            ],
            "min" : [
                -1.149999976158142,
                -0.15000005066394806,
                -1.149999976158142
            ],
            "type" : "VEC3"
        },
        {
            "bufferView" : 17,
            "componentType" : 5126,
            "count" : 1261,
            "type" : "VEC3"
        },
        {
            "bufferView" : 18,
            "componentType" : 5126,
            "count" : 1261,
            "type" : "VEC2"
        },
        {
            "bufferView" : 19,
            "componentType" : 5126,
            "count" : 1261,
            "max" : [
                1.149999976158142,
                0.15000003576278687,
                1.149999976158142
            ],
            "min" : [
                -1.149999976158142,
                -0.15000005066394806,
                -1.149999976158142
            ],
            "type" : "VEC3"
        },
        {
            "bufferView" : 20,
            "componentType" : 5126,
            "count" : 1261,
            "type" : "VEC3"
        },
        {
            "bufferView" : 21,
            "componentType" : 5126,
            "count" : 1261,
            "type" : "VEC2"
        },
        {
            "bufferView" : 22,
            "componentType" : 5126,
            "count" : 559,
            "max" : [
                1.000000238418579,
                1,
                1.0000003576278687
            ],
            "min" : [
                -0.9999998211860657,
                -1,
                -1
            ],
            "type" : "VEC3"
        },
        {
            "bufferView" : 23,
            "componentType" : 5126,
            "count" : 559,
            "type" : "VEC3"
        },
        {
            "bufferView" : 24,
            "componentType" : 5126,
            "count" : 559,
            "type" : "VEC2"
        },
        {
            "bufferView" : 25,
            "componentType" : 5123,
            "count" : 2880,
            "type" : "SCALAR"
        }
    ],
    "bufferViews" : [
        {
            "buffer" : 0,
            "byteLength" : 288,
            "byteOffset" : 0
        },
        {
            "buffer" : 0,
            "byteLength" : 288,
            "byteOffset" : 288
        },
        {
            "buffer" : 0,
            "byteLength" : 192,
            "byteOffset" : 576
        },
        {
            "buffer" : 0,
            "byteLength" : 72,
            "byteOffset" : 768
        },
        {
            "buffer" : 0,
            "byteLength" : 48432,
            "byteOffset" : 840
        },
        {
            "buffer" : 0,
            "byteLength" : 48432,
            "byteOffset" : 49272
        },
        {
            "buffer" : 0,
            "byteLength" : 32288,
            "byteOffset" : 97704
        },
        {
            "buffer" : 0,
            "byteLength" : 14808,
            "byteOffset" : 129992
        },
        {
            "buffer" : 0,
            "byteLength" : 54816,
            "byteOffset" : 144800
        },
        {
            "buffer" : 0,
            "byteLength" : 54816,
            "byteOffset" : 199616
        },
        {
            "buffer" : 0,
            "byteLength" : 36544,
            "byteOffset" : 254432
        },
        {
            "buffer" : 0,
            "byteLength" : 16800,
            "byteOffset" : 290976
        },
        {
            "buffer" : 0,
            "byteLength" : 15132,
            "byteOffset" : 307776
        },
        {
            "buffer" : 0,
            "byteLength" : 15132,
            "byteOffset" : 322908
        },
        {
            "buffer" : 0,
            "byteLength" : 10088,
            "byteOffset" : 338040
        },
        {
            "buffer" : 0,
            "byteLength" : 13824,
            "byteOffset" : 348128
        },
        {
            "buffer" : 0,
            "byteLength" : 15132,
            "byteOffset" : 361952
        },
        {
            "buffer" : 0,
            "byteLength" : 15132,
            "byteOffset" : 377084
        },
        {
            "buffer" : 0,
            "byteLength" : 10088,
            "byteOffset" : 392216
        },
        {
            "buffer" : 0,
            "byteLength" : 15132,
            "byteOffset" : 402304
        },
        {
            "buffer" : 0,
            "byteLength" : 15132,
            "byteOffset" : 417436
        },
        {
            "buffer" : 0,
            "byteLength" : 10088,
            "byteOffset" : 432568
        },
        {
            "buffer" : 0,
            "byteLength" : 6708,
            "byteOffset" : 442656
        },
        {
            "buffer" : 0,
            "byteLength" : 6708,
            "byteOffset" : 449364
        },
        {
            "buffer" : 0,
            "byteLength" : 4472,
            "byteOffset" : 456072
        },
        {
            "buffer" : 0,
            "byteLength" : 5760,
            "byteOffset" : 460544
        }
    ],
    "buffers" : [
        {
            "byteLength" : 466304,
            "uri" : "data:application/octet-stream;base64,"
        }
    ]
}
